<?xml version="1.0" encoding="UTF-8"?>
<svg version="1.1" viewBox="0 0 744.09 1052.4" xmlns="http://www.w3.org/2000/svg">
<g transform="translate(10 10)">
<path d="m30.357 479.38v-507.45h703.6v1014.9h-703.6v-507.45z" fill="#f9fcf9"/>
<path d="m97.191 869.69c-12.181-12.18-13.25-54.23-4.878-192.02 7.178-118.15 10.587-215.35 12.437-354.45 1.2752-96.1 3.9611-167.3 6.57-174.16 5.6481-14.856 34.616-48.878 41.772-49.061 3.0053-0.07693 6.5219 2.6167 7.8148 5.9858 1.9631 5.1157 4.7747 4.7641 17.053-2.1321 16.595-9.3208 20.423-10.22 16.501-3.8744-1.49 2.4109 1.7548 8.0012 7.2108 12.423 7.7256 6.2612 11.243 6.9423 15.904 3.0791 6.4936-5.3833 25.998-7.1964 25.998-2.4167 0 1.617-2.8784 4.0446-6.3964 5.3946s-6.3964 4.6686-6.3964 7.3747c0 3.7054 1.4563 3.7116 5.8984 0.0252 7.1486-5.933 11.159 1.9444 11.159 21.92 0 7.2092 4.5334 19.051 10.074 26.315 11.5 15.077 26.208 45.882 30.797 64.502 1.7142 6.9547 13.073 35.672 25.242 63.816s27.386 65.563 33.815 83.153c24.462 66.922 46.848 122.34 63.636 157.54 9.5717 20.068 16.983 37.926 16.469 39.685-0.51396 1.759 0.70134 3.1982 2.7007 3.1982 1.9993 0 4.87-16.065 6.3793-35.7 2.5914-33.713 17.05-116.7 22.757-130.61 1.4433-3.518 3.3434-10.234 4.2226-14.925 2.6804-14.302 19.197-71.82 23.878-83.153 2.4216-5.8633 4.8719-12.883 5.445-15.6 1.9135-9.0684 32.438-88.81 35.653-93.137 1.7428-2.3462 6.6118-13.86 10.82-25.587s9.8157-23.24 12.461-25.586c2.6453-2.3453 5.4717-8.1021 6.2808-12.793 2.202-12.764 9.7698-20.032 18.486-17.753 8.7645 2.292 10.95-7.967 2.43-11.405-4.2642-1.7207-4.2642-2.2182 0-2.4875 2.9317-0.18515 5.3303-3.0097 5.3303-6.2768 0-6.811 13.002-13.083 16.716-8.0631 4.4261 5.9824 19.393 3.526 25.102-4.1198 8.6149-11.537 15.53-8.8851 7.7585 2.9758-4.9275 7.5203-5.4764 11.281-1.9637 13.452 3.004 1.8565 3.7077 1.1234 1.8331-1.9098-1.6908-2.7358-0.56254-5.0681 2.5393-5.2494 3.0701-0.17944 8.9401-0.96911 13.044-1.7548 9.6266-1.8428 9.6497 4.6975 0.0341 10.078-4.0848 2.286-6.0204 5.5629-4.3013 7.282s0.952 5.7448-1.7047 8.946c-3.8176 4.5999-3.3627 5.2571 2.1691 3.1343 3.8511-1.4773 7.0009-4.0798 7.0009-5.7833s2.7958-3.0973 6.2129-3.0973c8.6356 0 12.094 11.159 4.3758 14.121-3.4785 1.3348-6.3245 4.3755-6.3245 6.7571 0 2.4531 2.8357 1.9767 6.5418-1.099 5.3049-4.4027 8.5297-4.3652 17.057 0.19846 5.7834 3.0952 10.515 7.1885 10.515 9.0962s-7.4057 15.568-16.457 30.356c-24.476 39.989-42.64 82.751-71.059 167.29-13.691 40.726-30.999 101.24-34.147 119.4-13.808 79.636-15.161 94.826-14.465 162.43 0.41235 40.083 2.2764 83.259 4.142 95.946 5.4142 36.819 7.9105 91.459 4.4355 97.082-1.755 2.8396-6.3955 3.933-10.312 2.43-5.4029-2.0733-7.1373-0.30746-7.1868 7.318-0.0341 5.528-1.823 12.829-3.9713 16.225-3.0452 4.8133-4.572 3.5205-6.9278-5.8661-2.7498-10.956-3.4151-11.32-7.391-4.0418-5.346 9.7864-12.078 14.537-16.621 11.729-1.871-1.1563-3.4018 0.65422-3.4018 4.0235 0 9.1422-11.348 17.579-14.186 10.546-1.7491-4.3356-3.0171-4.3875-5.956-0.24391-4.7381 6.6805-22.501-4.5977-22.501-14.287 0-3.5234-1.7888-5.3007-3.9753-3.9494-2.1864 1.3513-9.916-8.6892-17.177-22.312s-21.303-34.659-31.205-46.746c-9.9017-12.087-21.841-29.201-26.532-38.03-4.6907-8.8291-21.745-38.198-37.898-65.263-28.805-48.265-51.934-94.243-70.875-140.89-5.2376-12.899-12.827-31.129-16.865-40.51-4.0383-9.3814-12.852-33.112-19.586-52.735-11.079-32.284-12.547-34.543-15.435-23.744-1.7553 6.5632-3.5437 41.807-3.9743 78.32s-2.2743 83.657-4.0971 104.77c-2.8159 32.609-5.2376 80.235-10.408 204.68-1.2942 31.154-1.5157 31.936-8.3103 29.328-6.1329-2.3534-8.0977 2.1568-12.302 28.239l-1.7185 10.661-3.3357-10.225c-3.1667-9.707-3.6262-9.8278-9.0698-2.3832-3.1538 4.313-5.7635 6.036-5.7994 3.8287s-1.9254-1.1348-4.199 2.3832c-3.1978 4.9482-4.1484 3.6232-4.199-5.8524-0.0563-10.562-0.97288-11.496-6.6557-6.7793-3.6247 3.0083-5.6039 8.0405-4.3981 11.183 1.2426 3.2383-0.6296 5.7132-4.3219 5.7132-3.5828 0-5.5017-1.6383-4.2641-3.6407 1.2375-2.0024-2.7928-5.9384-8.9564-8.7467-10.913-4.9721-18.095-1.3675-18.311 9.1892-0.10704 5.2414-7.5427 3.6401-14.252-3.0691zm429.45-614.41c1.4562-3.7949 0.74134-5.5065-1.6759-4.0126-2.3185 1.4329-4.2154 4.4109-4.2154 6.6179 0 6.1338 3.0565 4.7822 5.8913-2.6053z" fill="#269326"/>
<path d="m445.98 820.72c-10.874-18.416-23.046-37.027-27.047-41.359-8.7971-9.5233-34.639-46.878-34.639-50.071 0-1.254-10.811-20.097-24.024-41.874-43.474-71.651-75.149-139.89-115.37-248.54-20.094-54.287-20.573-55.082-23.112-38.378-2.3192 15.255-2.657 15.649-3.1982 3.7312-0.92794-20.435-5.5601-40.054-8.9607-37.952-1.6791 1.0378-3.371 36.027-3.7596 77.753-0.65758 70.598-8.5102 227.5-11.555 230.87-3.6552 4.0475-10.445-4.9244-7.0642-9.3352 2.0868-2.7229 2.3712-9.748 0.63213-15.611-3.8038-12.824-3.9009-12.561-6.2734 17.057-1.0333 12.899-0.46707 20.166 1.2583 16.147 1.7254-4.0185 5.1174-5.9374 7.5378-4.2642 2.9875 2.0652 3.1504 23.24 0.50748 65.94-3.5626 57.557-7.5284 74.962-12.631 55.435-1.4675-5.6156-2.0726-5.088-2.4448 2.1321-0.29052 5.6356-3.2378 9.5946-7.1427 9.5946-3.6564 0-5.5716 1.7417-4.256 3.8704s0.59105 8.3652-1.6102 13.859c-3.474 8.6702-4.1338 7.4559-4.9988-9.2008-2.3764-45.756 2.628-172.93 7.377-187.47 1.1212-3.4323 3.0296-51.405 4.241-106.61 1.2114-55.201 2.9732-102.76 3.915-105.7 0.9418-2.9317-0.1463-5.3303-2.418-5.3303-4.1297 0-5.7166 13.102-4.2609 35.18 0.56977 8.641-1.275 11.857-7.0106 12.221-7.2289 0.45938-7.2077 0.64219 0.29756 2.564 6.4933 1.6627 6.9123 2.8096 2.1321 5.8364-3.2721 2.0719-4.0304 3.7941-1.685 3.827 4.8565 0.0682 3.3711 110.31-1.5806 117.3-1.6731 2.3634-2.5708 13.892-1.9948 25.618 1.275 25.96-2.8304 62.329-6.7614 59.9-1.5748-0.97328-5.6499-9e-3 -9.056 2.148-4.2496 2.6884-4.5203 3.9381-0.86246 3.9829 2.9317 0.0341 5.5216 4.3828 5.7554 9.6598 0.41022 9.2592 0.55512 9.222 4.1462-1.0661 2.6057-7.465 3.1635-2.9912 1.8608 14.925-1.0232 14.072-1.9295 42.6-2.0141 63.395-0.14503 35.675-0.63526 37.684-8.6822 35.579-6.8981-1.8039-8.5929-0.0648-8.8652 9.0972-0.27756 9.3396-1.5394 7.96-7.1907-7.8616-6.4082-17.941-7.0521-18.496-9.8989-8.5285-2.1969 7.6918-3.3038 3.5355-3.9749-14.925-0.51153-14.072-0.52356-27.504-0.0269-29.85 0.49681-2.3453 1.9158-13.859 3.1532-25.586 3.1852-30.184 6.1755-30.127 5.0467 0.0972-0.52356 14.019-2.3464 26.448-4.0507 27.621-1.7043 1.1727-0.73603 4.3231 2.1518 7.001 4.0894 3.7922 5.4439 0.963 6.1248-12.793 0.48083-9.7139 1.6051-25.337 2.4983-34.719 2.9101-30.563 6.0742-110.98 4.1944-106.61-1.0073 2.3453-3.5538 14.818-5.6589 27.718l-3.8274 23.453-0.4985-24.519c-0.57269-28.168-8.7832-33.691-9.5088-6.3964-0.26498 9.9677-1.1846 24.839-2.0435 33.048-0.85894 8.2087-2.7727 41.79-4.2528 74.624-1.4801 32.835-4.6378 61.618-7.0172 63.964-4.0761 4.0178-2.156-78.568 3.6188-155.65 4.3293-57.784 5.2608-87.752 7.8203-251.59 2.8057-179.6 5.4347-238.8 10.604-238.8 1.7702 0 2.6134 63.324 1.8738 140.72-0.76122 79.666 0.29078 140.72 2.4247 140.72 2.0731 0 3.8044-13.912 3.8474-30.916 0.0429-17.004 0.14788-65.936 0.23321-108.74 0.0854-42.803 1.7069-77.823 3.6033-77.823s2.692-7.9284 1.7679-17.619c-1.1668-12.235-0.22388-16.719 3.0855-14.673 2.6211 1.62 4.7657 0.91321 4.7657-1.5705 0-2.4838-1.9189-4.5159-4.2642-4.5159-5.3656 0-5.6549-28.487-0.32271-31.782 2.1678-1.3398 4.9227 0.9456 6.122 5.0786 1.2252 4.2226 1.8544 2.6214 1.436-3.6548-0.73887-11.086 8.6884-33.605 14.068-33.605 1.5428 0 1.9602 5.7567 0.92757 12.793-2.0415 13.91-0.34937 15.075 12.163 8.3785 6.1571-3.2952 8.2969-3.0249 8.4405 1.0661 0.1058 3.0142 2.8283-0.27641 6.05-7.3124s6.3058-10.874 6.8536-8.5285c0.54771 2.3453 1.4417 6.1832 1.9866 8.5285 0.54491 2.3453 1.2121 6.0232 1.4826 8.1729 0.27052 2.1498 7.2594-3.607 15.531-12.793l15.039-16.701-8.6265 14.925c-9.4308 16.316-11.027 23.289-4.3942 19.189 2.3453-1.4495 4.2643 0.29593 4.2643 3.8788 0 3.6766 2.4767 5.5638 5.6857 4.3324 3.1271-1.2 5.7105 0.29944 5.7409 3.332 0.0303 3.0326 6.3314 14.76 14.002 26.061 7.671 11.301 21.432 42.003 30.58 68.228 9.1481 26.225 22.328 58.451 29.288 71.614 6.9603 13.163 13.355 27.555 14.209 31.982 1.6806 8.7037 5.6549 20.144 11.685 33.635 2.0965 4.6907 11.29 29.637 20.431 55.435 15.226 42.976 28.402 74.188 53.102 125.8 5.0513 10.554 10.382 20.149 11.845 21.321 1.4634 1.1727 5.8561 8.3686 9.7616 15.991 8.3205 16.239 12.932 18 10.238 3.9089-1.2212-6.3881 0.12738-9.95 3.7671-9.95 5.9529 0 6.9986 4.8457 5.8116 26.932-0.39691 7.3855 1.1375 14.577 3.4099 15.982 2.3365 1.444 4.1684-3.4637 4.2165-11.296 0.27031-44.064 4.9377-99.463 11.047-131.12 3.8475-19.935 7.6592-40.084 8.4706-44.775 0.81136-4.6907 1.8302-8.5285 2.2642-8.5285 0.43393 0 1.675-8.6032 2.7578-19.118 1.9748-19.176 14.599-40.308 14.599-24.438 0 4.0206-1.5107 7.3102-3.3572 7.3102s-3.772 5.4432-4.2789 12.096c-0.50694 6.6529-4.4501 29.2-8.7627 50.105-4.3125 20.905-8.2066 45.245-8.6534 54.089-0.44689 8.8443-2.1889 20.358-3.8711 25.586-1.6822 5.2277-1.982 26.775-0.6662 47.883l2.3924 38.378 0.80582-32.337c0.44318-17.786 1.8779-33.409 3.1882-34.72 1.3103-1.3103 3.1667-14.583 4.1253-29.494 0.95861-14.912 2.7325-31.909 3.942-37.773 1.2095-5.8634 3.0964-15.458 4.1929-21.321 8.8945-47.558 12.036-59.527 15.124-57.619 1.9538 1.2075 2.5453-1.6552 1.3146-6.3617-1.2308-4.7064-0.0593-11.182 2.6034-14.39 2.6626-3.2082 3.5224-9.2696 1.9107-13.47-2.1693-5.6531-1.4636-6.7299 2.7174-4.1459 3.7995 2.3482 4.631 1.8454 2.5408-1.5366-1.7088-2.7649-1.8231-10.872-0.25415-18.017 2.0657-9.4051 4.6728-12.291 9.4476-10.459 5.2631 2.0196 5.5874 1.317 1.6062-3.48-5.1081-6.1549 1.7834-29.971 21.386-73.905 4.3901-9.839 7.9818-20.76 7.9818-24.268 0-3.5083 1.7713-7.4734 3.9362-8.8114s5.1994-8.1842 6.7434-15.214c1.5439-7.0296 4.4373-11.774 6.4298-10.542 1.9924 1.2314 5.0112-8e-3 6.7083-2.7538 1.9271-3.1181 1.2372-3.8503-1.8375-1.95-6.4613 3.9933-6.2143 1.0914 1.4733-17.308 7.9716-19.079 8.0344-23.157 0.31129-20.193-4.4788 1.7187-5.4566-0.0689-3.7038-6.7714 1.4376-5.4973 4.7096-8.2131 8.2557-6.8524 3.2308 1.2398 8.1179-1.3386 10.86-5.7297 5.0336-8.0601 15.525-7.3199 21.469 1.5148 1.9537 2.9041 5.5465 1.0708 9.8364-5.0193 3.7171-5.277 8.8035-9.5946 11.303-9.5946 2.9378 0 2.7226 2.1954-0.60894 6.2096-5.7708 6.9534-1.9954 16.752 4.8294 12.535 2.4172-1.494 1.9604 1.8328-1.0152 7.3929-2.9756 5.56-4.9621 10.109-4.4144 10.109 1.9894 0-4.6538 17.363-11.421 29.85-7.3842 13.626-7.2846 14.586 2.2333 21.546 5.2892 3.8676 5.1867 5.2785-0.74053 10.198-5.9043 4.9001-6.4985 4.7172-4.1931-1.2904 1.4771-3.8497 0.86871-6.9995-1.3522-6.9995s-6.5711 7.6756-9.6673 17.057c-4.8457 14.683-7.3501 17.057-17.991 17.057-7.1554 0-11.252 1.796-9.7264 4.2642 1.4495 2.3453 0.82701 4.2642-1.3834 4.2642-2.2103 0-4.9088 4.6559-5.9966 10.347-1.5187 7.9445-0.21791 10.214 5.6038 9.7754 4.17-0.3141 6.6665-2.052 5.5478-3.862-2.7342-4.4241 6.1326-20.524 11.303-20.524 2.2628 0 4.1142 1.9006 4.1142 4.2236 0 7.4008-18.521 46.947-21.986 46.947-1.8323 0-2.372 2.5001-1.1994 5.5558 2.7062 7.0522-9.6436 37.087-15.25 37.087-2.3139 0-4.3585-3.3581-4.5437-7.4624-0.24818-5.4974-0.96393-5.876-2.7189-1.4379-1.3102 3.3135 0.91186 8.4332 4.938 11.377 6.2066 4.5384 6.5106 6.8654 1.9983 15.297-2.9271 5.4692-4.9977 10.424-4.6013 11.01 3.0803 4.5572-0.47875 8.8667-5.6758 6.8724-8.6983-3.3378-20.385 1.6018-16.948 7.1634 1.9106 3.0913 4.6991 2.9104 8.9018-0.57755 8.7058-7.2252 11.154-2.7435 7.9199 14.497-1.8488 9.8553-5.6752 15.718-11.202 17.163-7.3925 1.9332-8.092 0.58083-5.8636-11.334l2.5304-13.529-6.6367 14.606c-5.2992 11.663-5.5406 15.302-1.1979 18.058 7.5644 4.8006 12.861 4.4282 9.703-0.68211-1.4495-2.3453-0.37952-4.2642 2.3778-4.2642 3.118 0 4.0412 3.6273 2.4421 9.5946-1.4142 5.277-2.5975 12.953-2.6295 17.057-0.0341 4.1043-2.6042 7.4624-5.7161 7.4624-3.8609 0-5.0615-4.063-3.7803-12.793 1.2111-8.252 0.0299-12.793-3.3269-12.793-2.9808 0-4.1051 2.8649-2.6314 6.7053 1.4152 3.6879 0.57227 10.444-1.8731 15.013-5.4298 10.146-1.094 19.672 5.8109 12.767 5.9474-5.9474 12.832-6.0433 9.1759-0.12793-1.5323 2.4794-3.5004 9.6753-4.3734 15.991-3.3158 23.987-6.7779 59.279-8.099 82.564-0.75438 13.296-2.6536 26.248-4.2206 28.784-1.5669 2.5353-1.1282 4.6097 0.97502 4.6097s4.1188 21.856 4.4791 48.568c0.36033 26.712 2.6139 53.097 5.0079 58.633 3.3865 7.831 3.8836 4.6222 2.2393-14.454-1.2638-14.662-0.42745-24.519 2.0804-24.519 2.3067 0 4.3212 2.3986 4.4768 5.3303 0.15565 2.9317 0.885 17.477 1.6209 32.324 0.73588 14.846 3.37 29.025 5.8536 31.509 3.178 3.178 4.0296-2.2917 2.875-18.465-0.9024-12.639-1.6463-33.055-1.6531-45.368-9e-3 -16.835-1.5651-22.387-6.2726-22.387-3.4431 0-7.385 2.3986-8.7597 5.3303-3.3829 7.214 0.76091-154.19 4.2697-166.31 5.1071-17.638 9.259-9.8526 5.4938 10.302-2.0444 10.943-2.8838 20.73-1.8653 21.748 4.4098 4.4098 10.948-4.7111 10.948-15.273 0-6.3268 1.8932-18.104 4.2071-26.172 2.3139-8.0681 5.1888-22.447 6.3886-31.954 1.1999-9.5065 4.8897-27.359 8.1997-39.672s4.9974-22.387 3.7498-22.387 0.0507-2.7943 2.8852-6.2096c2.8344-3.4152 4.0169-8.0486 2.6277-10.296-1.3892-2.2478-1.0747-4.7305 0.69895-5.5171 1.7736-0.78665 8.7236-18.536 15.444-39.444 6.7208-20.907 16.795-46.619 22.387-57.136 5.5922-10.518 10.168-22.291 10.168-26.163 0-3.8723 1.6017-8.8635 3.5594-11.092 4.4777-5.0961 19.871-45.701 18.788-49.559-1.2543-4.468 23.111-29.116 28.781-29.116 2.7855 0 0.22942 5.7464-5.6804 12.77-5.9097 7.0234-11.966 16.618-13.459 21.321-1.4928 4.7033-4.617 8.5515-6.9427 8.5515s-3.1774 1.7009-1.8926 3.7798-3.1799 15.991-9.9217 30.916c-27.129 60.059-70.868 198.67-75.786 240.17-1.1 9.2816-2.7592 18.104-3.6873 19.606-3.9165 6.3371-7.9624 69.68-7.6113 119.16 0.44382 62.552 3.8802 115.78 9.7568 151.12 4.2138 25.341 2.8833 36.314-2.5617 21.128-4.3109-12.023-10.585-18.936-14.815-16.322-2.0622 1.2745-0.0499 9.5686 4.4715 18.431 6.645 13.025 7.0476 16.114 2.1004 16.114-3.3663 0-6.1499-2.0788-6.1858-4.6196-0.0341-2.5408-1.7859-1.9014-3.8887 1.4208-2.2365 3.5334-2.2532 10.17-0.0384 15.991 5.1057 13.429 1.9078 12.522-12.429-3.5229-14.137-15.822-23.715-13.244-20.944 5.6376 1.007 6.8615 0.23197 13.464-1.7222 14.672-1.9543 1.2078-3.5533-0.46109-3.5533-3.7087s-4.9838-10.557-11.075-16.243c-10.335-9.6466-11.015-9.7676-10.17-1.8094 1.6703 15.732-0.0341 22.525-6.2543 24.912-4.2872 1.6452-12.228-7.8759-25.949-31.112zm25.539 15.795c-3.8858-12.862-10.469-19.65-10.469-10.796 0 10.241 4.6154 20.391 9.2721 20.391 2.2631 0 2.7985-4.2926 1.1966-9.5946zm56.071-23.365c-1.417-1.417-2.4248 1.1016-2.2397 5.5968 0.20469 4.9676 1.2151 5.9781 2.5763 2.5763 1.2318-3.0783 1.0804-6.7562-0.33645-8.1732zm-382.1-15.96c0-3.9621-2.4809-5.3105-6.7539-3.6708-5.4379 2.0867-5.6456 3.2943-1.0661 6.1972 7.5738 4.801 7.82 4.7215 7.82-2.5264zm-2.6256-23.206c4.0643-5.1386 3.4213-5.1832-4.4113-0.30617-5.5485 3.4549-8.1862 8.2708-6.6799 12.196 2.1205 5.5259 2.774 5.5712 4.4113 0.30618 1.0572-3.3994 4.0631-8.8877 6.6799-12.196zm36.74 8.1475c0-4.6907-0.73566-8.5285-1.6348-8.5285-0.89912 0-2.6384 3.8378-3.865 8.5285s-0.49099 8.5285 1.6348 8.5285 3.865-3.8378 3.865-8.5285zm262.25-7.4624c-0.85108-6.4497-1.6796-13.78-1.8412-16.289-0.16161-2.5093-6.3349-11.144-13.718-19.189-7.3835-8.0448-12.241-11.269-10.794-7.1644 5.5253 15.677-6.1761 6.568-15.064-11.727-5.1275-10.554-10.859-19.189-12.737-19.189-8.6717 0 1.3352 24.713 19.852 49.025 30.05 39.456 36.922 44.37 34.304 24.534zm-17.06-18.123c-6.7409-7.036-10.109-12.793-7.4846-12.793s8.8708 5.7567 13.881 12.793c5.0101 7.036 8.3781 12.793 7.4846 12.793-0.89358 0-7.14-5.7567-13.881-12.793zm-255.41 1.1549c-1.417-1.417-2.4248 1.1016-2.2397 5.5968 0.2046 4.9676 1.2151 5.978 2.5763 2.5763 1.2318-3.0783 1.0803-6.7562-0.33666-8.1732zm-26.62 0.97724c1.35-3.518 1.4182-6.3964 0.15164-6.3964s-5.1813 2.8784-8.6993 6.3964c-5.5476 5.5476-5.5677 6.3964-0.15164 6.3964 3.4346 0 7.3493-2.8784 8.6992-6.3964zm39.785-39.444 0.43814-28.784-3.6692 23.453c-3.2562 20.813-2.7088 34.114 1.404 34.114 0.76391 0 1.5861-12.953 1.8271-28.784zm-37.062 7.7141c0-2.2069-1.9189-5.1986-4.2643-6.648-2.3453-1.4495-4.2642 0.35606-4.2642 4.0126 0 3.6564 1.9189 6.648 4.2642 6.648s4.2643-1.8056 4.2643-4.0126zm266.33-13.339c-1.3493-2.1833-4.7387-3.8181-7.532-3.6329-3.635 0.24093-3.5559 0.95054 0.27824 2.4963 2.9463 1.1878 4.089 4.2112 2.5393 6.7186-1.6794 2.7172-0.80068 3.3124 2.1751 1.4732 2.746-1.6971 3.8887-4.8719 2.5393-7.0552zm17.352 1.1182c-1.3129-1.3129-4.7538-3e-3 -7.6463 2.9116-4.1801 4.2115-3.6903 4.7012 2.3871 2.3871 4.2055-1.6014 6.5722-3.9858 5.2592-5.2987zm-58.824-44.532c-8.0958-14.658-18.793-33.847-23.772-42.643-4.9788-8.795-7.1662-15.991-4.8609-15.991s4.1914-2.8784 4.1914-6.3964-2.0322-6.3964-4.5159-6.3964c-2.4838 0-3.33 1.9189-1.8805 4.2643 1.4495 2.3453 0.8086 4.2642-1.4242 4.2642-6.382 0-9.8503-13.311-4.9931-19.164 3.1053-3.7417 2.4742-6.8804-2.1562-10.723-5.5727-4.6249-6.1215-4.2333-3.6892 2.6324 1.9801 5.5893 1.4709 6.7564-1.6586 3.8013-4.3262-4.0851-39.246-83.478-45.483-103.41-2.9862-9.5432-10.956-13.442-10.956-5.3597 0 9.7015 31.596 83.621 37.912 88.696 3.7743 3.0326 6.5266 6.8704 6.1162 8.5285-1.6186 6.5385 4.161 26.468 7.6756 26.468 2.0522 0 3.7312 2.5721 3.7312 5.7158 0 5.7269 39.998 74.767 46.191 79.731 3.2328 2.5909 4.9796 6.2738 4.9796 10.499 0 1.1727 2.095 2.1321 4.6556 2.1321s-1.9682-11.993-10.064-26.652zm17.306 3.9319c-5.371-8.4137-11.425-15.379-13.454-15.478-2.0287-0.0994-0.88815 4.137 2.5346 9.4141 3.4228 5.277 8.7623 14.387 11.866 20.244 3.1033 5.8571 6.3572 8.5047 7.2309 5.8835 0.87373-2.6212-2.8059-11.65-8.1769-20.063zm28.613 18.455c-1.4495-2.3453-3.4816-4.2642-4.5159-4.2642s-1.8805 1.9189-1.8805 4.2642 2.0322 4.2642 4.5159 4.2642c2.4838 0 3.33-1.9189 1.8805-4.2642zm75.24-44.97c-0.79844-21.44 0.38084-31.797 3.6204-31.797 2.6426 0 3.7006 1.7863 2.3513 3.9696-1.3494 2.1833-0.95144 4.8978 0.88428 6.0324 1.8357 1.1345 5.5352-2.5939 8.2212-8.2855 4.2327-8.969 3.655-11.003-4.3341-15.259-8.3234-4.4343-8.6499-4.2224-3.3653 2.1838 5.0658 6.1408 4.8546 7.0945-1.5704 7.0945-6.7077 0-7.1461-3.5952-4.5502-37.312 5.8579-76.086 35.032-207.57 57.479-259.05 2.0453-4.6907 6.972-17.678 10.948-28.862 3.9764-11.183 9.6163-22.719 12.533-25.636 2.9168-2.9168 5.3033-8.4993 5.3033-12.406 0-3.9062 6.342-21.648 14.093-39.426 10.678-24.49 15.38-31.256 19.402-27.918 3.8328 3.1809 6.1022 2.337 8.1639-3.0357 1.5705-4.0927 1.5376-6.1235-0.0729-4.5128-1.6107 1.6107-7.7401-0.85626-13.621-5.4821-8.1588-6.4177-12.065-7.2713-16.486-3.6024-3.1865 2.6445-5.7642 6.9719-5.7282 9.6164 0.0384 2.7962 1.616 2.3602 3.7711-1.0419 7.3682-11.632 13.053-3.1396 6.7709 10.114-8.8751 18.725-40.457 97.238-40.457 100.58 0 1.5706-3.2176 10.286-7.1503 19.367-3.9327 9.0814-7.6098 18.431-8.1715 20.776-0.5616 2.3453-7.0135 22.186-14.338 44.091-24.185 72.332-41.31 175.29-40.19 241.61 1.1737 69.507 1.5919 76.075 4.6492 73.018 1.6651-1.6652 2.4947-17.336 1.8434-34.825zm-70.662 21.201c-3.6855-3.6855-6.701-9.4422-6.701-12.793 0-3.3505-1.9189-6.0918-4.2642-6.0918s-4.2642-3.8378-4.2642-8.5285-1.8799-8.5285-4.1776-8.5285-8.1883-7.8616-13.09-17.47c-4.902-9.6086-9.9932-16.39-11.314-15.069-1.3207 1.3207 5.5294 15.05 15.222 30.509 9.693 15.459 17.624 29.532 17.624 31.273 0 4.3576 9.4134 13.399 13.95 13.399 2.0438 0 0.70055-3.0154-2.985-6.701zm87.912 3.788c-3.0782-1.2318-6.7562-1.0803-8.1732 0.33645-1.417 1.417 1.1016 2.4248 5.5968 2.2397 4.9676-0.20468 5.978-1.215 2.5763-2.5763zm31.218-34.399c-0.0213-15.831-1.3486-30.794-2.9528-33.252-1.6042-2.4573-1.1539-7.2546 1.0008-10.661 6.1197-9.6738 5.1168-47.77-1.2022-45.664-8.0208 2.6736-10.567 118.36-2.605 118.36 4.3154 0 5.7861-7.3503 5.7593-28.784zm-174.56 4.1627c-7.3676-7.037-7.482-6.9226-2.5989 2.5989 2.8093 5.4779 6.2774 8.7903 7.7067 7.3609 1.4294-1.4294-0.86916-5.9113-5.1079-9.9598zm-215.11 0.34924c4.9956-6.1586 4.9659-6.6805-0.20251-3.5647-4.5399 2.7368-5.3741 1.8758-3.3338-3.441 1.4966-3.9001 1.07-11.411-0.94811-16.69-2.894-7.5712-3.6912-5.3199-3.7732 10.656-0.0572 11.14 0.46059 20.255 1.1506 20.255 0.69005 0 3.8882-3.2467 7.1071-7.2149zm282.85-1.0189c1.3494-2.1833 0.70421-5.0506-1.4336-6.3719-2.1378-1.3212-4.9873 0.46506-6.3321 3.9696-2.6511 6.9086 3.7558 8.8905 7.7657 2.4023zm-241-59.63c0.13518-12.704-1.025-21.827-2.578-20.274-1.5531 1.5531-2.568 9.6275-2.2554 17.943 0.31261 8.3157-0.96781 14.17-2.8454 13.01-1.8776-1.1604-2.9415 2.1187-2.3642 7.287 0.57725 5.1682 1.4301 16.113 1.8953 24.322l0.84574 14.925 3.5281-17.057c1.9405-9.3814 3.6387-27.451 3.7739-40.155zm227.9 41.507c-1.2316-1.9927-4.0255-2.5191-6.2088-1.1697-5.5793 3.4482-4.951 4.7928 2.2392 4.7928 3.4148 0 5.2012-1.6304 3.9696-3.6231zm-297.28-23.04c2.0867-5.4379 3.2943-5.6456 6.1972-1.0661 2.6897 4.2432 3.7408 3.5217 4.1383-2.8406 0.29304-4.6907 1.056-14.739 1.6955-22.329 0.63949-7.5902-0.53033-12.754-2.5996-11.475-2.0693 1.2789-4.0236 8.4485-4.343 15.932-0.42811 10.031-1.0664 11.086-2.4287 4.0126-3.2987-17.126-14.048-11.416-14.048 7.4624 0 17.086 6.521 22.986 11.388 10.303zm279.36-11.227c-3.0599-3.0599-5.046-3.3116-5.046-0.63964 0 5.6918 5.043 10.735 7.8889 7.8889 1.2118-1.2117-0.0675-4.4739-2.8428-7.2492zm-28.055-6.4497c-4.3347-4.3347-7.9112 2.1914-4.3547 7.9459 2.6866 4.3471 3.691 4.3504 5.1354 0.017 0.98758-2.9628 0.63626-6.5462-0.78071-7.9631zm-19.633 3.1094c0-2.3453-2.0322-4.2642-4.5159-4.2642-2.4838 0-3.33 1.9189-1.8805 4.2642s3.4816 4.2642 4.5159 4.2642 1.8805-1.9189 1.8805-4.2642zm39.16-13.717c-3.0599-3.0598-5.046-3.3116-5.046-0.63964 0 5.6918 5.043 10.735 7.8889 7.8889 1.2118-1.2117-0.0675-4.4739-2.8428-7.2492zm-32.168-8.9697c-7.4256-17.772-19.387-40.018-19.614-36.478-0.29048 4.5386 20.908 50.636 23.286 50.636 1.2337 0-0.41887-6.371-3.6724-14.158zm150.79 7.7615c0-3.518-3.1133-6.3964-6.9185-6.3964-5.6663 0-5.9577 1.1577-1.61 6.3964 2.9197 3.518 6.033 6.3964 6.9185 6.3964 0.88552 0 1.61-2.8784 1.61-6.3964zm-389.81-18.09c-4.6583-4.6583-7.8525 2.7498-4.5081 10.455 3.1712 7.3062 3.4011 7.2996 5.168-0.14967 1.017-4.2879 0.72006-8.9253-0.65993-10.305zm203.95 5.9191c-1.4788-3.8537-4.4698-7.0067-6.6468-7.0067-2.1783 0-1.8178 3.9991 0.80172 8.8937 5.4298 10.146 9.9077 8.7001 5.8451-1.887zm16.908 3.4324c1.4562-3.7948 0.74134-5.5065-1.6759-4.0126-2.3185 1.4329-4.2154 4.4109-4.2154 6.6179 0 6.1338 3.0565 4.7822 5.8913-2.6053zm-192.28-6.1749c-1.2266-4.6907-2.9659-8.5285-3.865-8.5285-0.89913 0-1.6348 3.8378-1.6348 8.5285s1.7393 8.5285 3.865 8.5285c2.1258 0 2.8614-3.8378 1.6348-8.5285zm44.18-18.757c0.89515-8.1231-0.322-15.974-2.7048-17.447-2.7001-1.6688-4.3323 4.9144-4.3323 17.474 0 22.622 4.543 22.605 7.0371-0.0256zm189.12 10.229c0-2.3453-1.9189-4.2642-4.2642-4.2642s-4.2642 1.9189-4.2642 4.2642 1.9189 4.2642 4.2642 4.2642 4.2642-1.9189 4.2642-4.2642zm-66.096-4.2642c-1.4495-2.3453-3.4817-4.2642-4.5159-4.2642s-1.8805 1.9189-1.8805 4.2642 2.0322 4.2642 4.5159 4.2642c2.4838 0 3.33-1.9189 1.8805-4.2642zm193.2-6.5092c-1.3129-1.3129-3.6973 1.0537-5.2987 5.2592-2.3141 6.0774-1.8243 6.5672 2.3871 2.3871 2.9143-2.8926 4.2245-6.3334 2.9116-7.6464zm-353.11 1.9933c0-2.4838-2.245-3.1284-4.9889-1.4326-3.482 2.152-4.0497 0.61797-1.8795-5.0787 2.3722-6.2266 1.9243-6.9862-1.8888-3.2032-2.749 2.7273-3.7089 7.0448-2.1331 9.5946 3.6691 5.9367 10.89 6.0162 10.89 0.11987zm-33.691-2.9465c0.23245-1.759 0.85816-14.218 1.3904-27.687 1.2499-31.626 6.6953-37.358 6.7807-7.138 0.0401 14.235 1.4477 20.917 3.6679 17.415 1.9814-3.1257 3.0214-23.754 2.3109-45.841-0.84841-26.376 0.26715-40.158 3.2506-40.158 3.1107 0 3.0454-1.8037-0.20707-5.7227-2.6122-3.1474-3.4868-6.9853-1.9436-8.5285s0.56708-2.8058-2.1692-2.8058c-3.2645 0-5.2311 10.629-5.72 30.916-0.49105 20.378-1.3014 24.738-2.3773 12.793-1.6668-18.506-9.7823-25.932-9.3201-8.5285 0.14016 5.277-1.0462 27.345-2.6363 49.039-2.033 27.737-1.49 39.444 1.8296 39.444 2.5964 0 4.9109-1.4392 5.1433-3.1982zm12.37-5.582c0-2.4838-1.9189-3.33-4.2642-1.8804-2.3453 1.4495-4.2642 3.4817-4.2642 4.5159s1.9189 1.8804 4.2642 1.8804 4.2642-2.0322 4.2642-4.5159zm230.99-13.528c-3.1644-3.1644-3.7193-1.4995-1.8645 5.5935 1.5079 5.7661 3.4408 7.6991 4.5054 4.5054 1.0255-3.0764-0.16294-7.6209-2.6409-10.099zm142.3 9.778c-1.3604-2.2012 0.69336-5.7744 4.5639-7.9405 3.8706-2.1661 6.2875-6.1883 5.3708-8.9382-1.2164-3.6493-3.8562-3.3987-9.7727 0.92747-7.2572 5.3066-7.4086 19.953-0.20597 19.953 1.3847 0 1.4046-1.801 0.0444-4.0022zm-168.61-10.92c0-3.518-1.8587-6.3964-4.1304-6.3964s-3.0259 2.8784-1.6759 6.3964 3.2087 6.3964 4.1304 6.3964c0.92174 0 1.6759-2.8784 1.6759-6.3964zm-144.99-15.18c0-4.5523-1.9189-8.2768-4.2642-8.2768s-4.2642 4.9105-4.2642 10.912c0 6.189 1.8457 9.7715 4.2642 8.2768 2.3453-1.4495 4.2642-6.36 4.2642-10.912zm106.54 9.8462c-0.0359-1.759-1.9254-6.0766-4.199-9.5946-3.3426-5.1724-4.1462-4.5604-4.199 3.1982-0.0359 5.277 1.8536 9.5946 4.199 9.5946 2.3453 0 4.2349-1.4392 4.199-3.1982zm31.749-9.1114c1.2853-2.0796-1.0001-6.3972-5.0786-9.5946-6.5506-5.1354-6.7981-5.0217-2.1222 0.97524 2.9113 3.7338 4.0307 8.0513 2.4875 9.5946-1.5432 1.5432-1.6398 2.8058-0.21466 2.8058s3.6428-1.7015 4.928-3.7811zm-182.62-16.385c-1.417-1.417-2.4248 1.1016-2.2397 5.5968 0.2046 4.9676 1.2151 5.978 2.5763 2.5763 1.2318-3.0782 1.0803-6.7562-0.33667-8.1732zm44.33-1.1549c0-2.3453-1.9189-4.2642-4.2642-4.2642s-4.2642 1.9189-4.2642 4.2642 1.9189 4.2642 4.2642 4.2642 4.2642-1.9189 4.2642-4.2642zm124.23-20.255c-8.1042-23.787-8.4509-24.457-11.219-21.689-2.9925 2.9925 10.738 41.944 14.785 41.944 1.8342 0 0.2295-9.1148-3.5661-20.255zm31.411 11.727c-1.4495-2.3453-3.4817-4.2642-4.5159-4.2642s-1.8805 1.9189-1.8805 4.2642 2.0322 4.2642 4.5159 4.2642c2.4838 0 3.33-1.9189 1.8805-4.2642zm-63.964-8.5285c-1.4495-2.3453-3.4817-4.2643-4.5159-4.2643-1.0343 0-1.8805 1.9189-1.8805 4.2643 0 2.3453 2.0322 4.2642 4.5159 4.2642 2.4838 0 3.33-1.9189 1.8805-4.2642zm-93.369-11.638c-1.417-1.417-2.4248 1.1016-2.2397 5.5968 0.2046 4.9676 1.2151 5.978 2.5763 2.5763 1.2318-3.0782 1.0803-6.7562-0.33666-8.1732zm75.342-1.4367c-1.503-5.7473-3.7553-7.359-6.4785-4.6358-4.4139 4.4139-0.94173 13.446 5.169 13.446 1.9874 0 2.5766-3.9646 1.3094-8.8103zm67.446-12.524c-8.1814-23.232-13.946-32.385-10.328-16.4 2.6322 11.629 13.858 37.734 16.226 37.734 0.88786 0-1.7666-9.6005-5.8989-21.334zm-142.24-47.96c-0.89777-9.9677-1.6323-1.8123-1.6323 18.123s0.73454 28.091 1.6323 18.123c0.89778-9.9677 0.89778-26.278 0-36.246zm66.03 38.663c-6.5003-6.5003-10.46-2.5408-6.8545 6.8544 1.9833 5.1685 4.1246 5.9675 7.3496 2.7425s3.0808-6.021-0.49515-9.5969zm-7.8666-19.967c-2.0449-1.4878-3.9098-5.1037-4.1444-8.0353-0.23453-2.9317-0.71426-8.2087-1.0661-11.727-0.3518-3.518-3.7387-6.3964-7.5264-6.3964-6.3134 0-6.3052 0.88768 0.0983 10.661 3.8418 5.8633 5.9139 10.661 4.6046 10.661s-0.0725 4.3124 2.7483 9.5832c3.572 6.6744 5.7168 7.8191 7.0662 3.771 1.0656-3.1967 0.2643-7.0294-1.7806-8.5171zm44.388-12.3c-4.7529-13.486-10.608-26.438-13.01-28.784-2.967-2.896-3.3578-1.5278-1.218 4.2642 1.7329 4.6907 6.1447 17.643 9.8039 28.784 3.6592 11.14 8.0961 20.255 9.8597 20.255s-0.6822-11.034-5.4351-24.519zm-158.28-6.3964c-1.183-2.9317-2.1508-0.53303-2.1508 5.3303s0.96787 8.262 2.1508 5.3303c1.183-2.9317 1.183-7.729 0-10.661zm33.538-50.205c0.34518-32.78-0.81909-59.6-2.5873-59.6s-3.8545 1.8867-4.6363 4.1926c-2.5942 7.6518 1.1341 120.47 3.8901 117.71 1.4882-1.4882 2.9882-29.526 3.3334-62.306zm143.14 37.172c-5.5689-5.5689-6.3435 0.60279-1.5919 12.684 2.9631 7.5339 3.1287 7.5302 4.6642-0.10418 0.87557-4.3535-0.50692-10.014-3.0722-12.58zm227.09 8.0932c5.7963-8.8463 5.8881-10.967 0.66219-15.304-4.965-4.1206-5.7552-3.4173-4.3512 3.8732 0.94355 4.8994-0.0932 8.9081-2.3039 8.9081s-4.0194 2.8784-4.0194 6.3964c0 8.8865 2.2126 8.0306 10.012-3.8732zm-291.24-12.58c-5.9722-15.708-9.3195-14.149-3.7742 1.7584 2.4945 7.1557 5.3267 12.219 6.2939 11.252 0.96712-0.96711-0.16669-6.8218-2.5196-13.01zm-11.504-11.252c1.6907-9.2139 1.2999-12.689-1.0214-9.083-3.0413 4.7252-4.6457 4.3176-8.3929-2.1321-4.064-6.995-4.6487-7.0887-4.7625-0.76328-0.0713 3.9659 1.9201 8.4776 4.4253 10.026 2.5052 1.5483 3.5969 5.3118 2.4259 8.3633s-0.98197 6.6952 0.41998 8.0972c3.4173 3.4173 3.7411 2.7372 6.9055-14.508zm-43.093-2.2339c1.1316-5.9193 0.3958-11.789-1.635-13.044-2.0308-1.2551-3.6924 3.588-3.6924 10.762 0 15.831 2.5302 16.915 5.3274 2.282zm-56.498-2.282c0-4.8291-1.8351-7.646-4.078-6.2598s-2.9971 5.3373-1.6759 8.7802c3.3825 8.8147 5.7539 7.776 5.7539-2.5204zm170.57 4.5159c0-2.3453-2.0322-4.2642-4.5159-4.2642-2.4838 0-3.33 1.9189-1.8805 4.2642s3.4817 4.2643 4.5159 4.2643 1.8805-1.9189 1.8805-4.2643zm-43.82-36.167c-9.6031-19.892-18.068-35.559-18.811-34.816-2.2881 2.2881 29.762 70.982 33.118 70.982 1.7343 0-4.7037-16.275-14.307-36.167zm33.159 14.845c-3.6385-7.036-7.5748-12.793-8.7475-12.793s0.8448 5.7567 4.4833 12.793c3.6385 7.036 7.5748 12.793 8.7475 12.793s-0.8448-5.7567-4.4833-12.793zm257.99 0.71071c0-1.9544-2.794-3.5536-6.2088-3.5536-3.4149 0-5.2205 1.5991-4.0126 3.5536 1.2079 1.9544 4.0019 3.5535 6.2088 3.5535s4.0126-1.5991 4.0126-3.5535zm-419.34-14.59c-1.183-2.9317-2.1508-0.53303-2.1508 5.3303s0.96787 8.262 2.1508 5.3303c1.183-2.9317 1.183-7.729 0-10.661zm95.254 3.1982c-2.9197-3.518-5.9728-6.3964-6.7847-6.3964-0.81189 0-0.37163 2.8784 0.97837 6.3964s4.4031 6.3964 6.7847 6.3964c2.4959 0 2.0814-2.7095-0.97836-6.3964zm291.6-0.22148c1.4562-3.7949 0.74134-5.5065-1.6759-4.0126-2.3185 1.4329-4.2154 4.4109-4.2154 6.6179 0 6.1338 3.0565 4.7822 5.8913-2.6053zm41.542-12.71c3.8078-8.1323 5.6137-14.786 4.0132-14.786-4.2035 0-20.114 12.495-16.117 12.657 1.8415 0.0746 1.2943 3.9734-1.2161 8.6641-3.4668 6.4778-3.2466 8.4951 0.91604 8.3896 3.0142-0.0764 8.5958-6.7926 12.403-14.925zm-427.25-13.72c-0.26165-10.237-0.73544-10.644-3.7306-3.1982-1.887 4.6907-2.5984 9.9677-1.5808 11.727 3.6121 6.2438 5.6071 3.0404 5.3114-8.5285zm141.55-2.2032c-4.2114-4.1801-4.7013-3.6903-2.3871 2.3871 1.6014 4.2055 3.9858 6.5722 5.2987 5.2592 1.3129-1.3129 3e-3 -4.7538-2.9116-7.6464zm-38.378-25.586c-4.2114-4.1801-4.7012-3.6903-2.3871 2.3871 1.6014 4.2055 3.9858 6.5722 5.2987 5.2592 1.3129-1.3129 3e-3 -4.7538-2.9116-7.6464zm-104.31-12.72c-1.183-2.9317-2.1508-0.53303-2.1508 5.3303s0.96787 8.262 2.1508 5.3303c1.183-2.9317 1.183-7.729 0-10.661zm457.71-24.771c0-4.5523 1.9189-8.2768 4.2642-8.2768s4.2642-2.8182 4.2642-6.2626c0-3.8041-2.5014-5.3027-6.3719-3.8174-3.5045 1.3448-5.3102 4.163-4.0126 6.2625 1.2976 2.0996 0.21389 3.8174-2.4083 3.8174s-3.6636 1.7863-2.3142 3.9696 0.47183 5.1942-1.95 6.691-3.28 4.5391-1.907 6.7606c3.765 6.0918 10.436 0.24656 10.436-9.1444zm-347.96-32.34c-7.8406-17.606-8.8673-20.476-9.6968-27.112-0.29316-2.3453-2.4519-4.2642-4.7973-4.2642-6.7696 0-4.9656 12.595 3.5704 24.927 4.309 6.2254 9.1515 14.952 10.761 19.392s3.9531 7.0461 5.208 5.7912c1.2548-1.2549-1.0155-9.6849-5.0452-18.733zm360.76 0.14893c0-0.92175-2.8784-1.6759-6.3964-1.6759s-6.3964 1.8587-6.3964 4.1304 2.8784 3.0259 6.3964 1.6759 6.3964-3.2087 6.3964-4.1304zm-515.98 620.91c0-11.727 1.9189-21.321 4.2643-21.321 2.3453 0 4.2642 9.5946 4.2642 21.321 0 11.727-1.9189 21.321-4.2642 21.321s-4.2643-9.5946-4.2643-21.321zm34.451 6.7517c-0.18515-4.4952 0.82269-7.0138 2.2397-5.5968s1.5685 5.0949 0.33666 8.1732c-1.3613 3.4017-2.3717 2.3913-2.5763-2.5763zm42.643 0c-0.18515-4.4952 0.8227-7.0138 2.2397-5.5968s1.5685 5.0949 0.33667 8.1732c-1.3613 3.4017-2.3717 2.3913-2.5763-2.5763zm8.1919-11.016c0-7.036 1.9189-12.793 4.2642-12.793s4.2642 5.7567 4.2642 12.793c0 7.036-1.9189 12.793-4.2642 12.793s-4.2642-5.7567-4.2642-12.793zm-33.777-1.7768c-0.18516-4.4952 0.82269-7.0138 2.2397-5.5968s1.5685 5.0949 0.33666 8.1732c-1.3613 3.4017-2.3717 2.3913-2.5763-2.5763zm-34.114-4.2643c-0.18516-4.4952 0.82269-7.0138 2.2397-5.5968s1.5685 5.0949 0.33666 8.1732c-1.3613 3.4017-2.3717 2.3913-2.5763-2.5763zm86.59-8.6248c-1.2953-3.3756-0.39914-9.612 1.9916-13.859 3.6173-6.4257 4.2838-5.3958 3.9722 6.1374-0.40519 14.992-2.2548 17.387-5.9637 7.7214zm2.6228-40.518c0-2.4838 1.9189-4.5159 4.2642-4.5159s4.2642 0.8462 4.2642 1.8804-1.9189 3.0664-4.2642 4.5159-4.2642 0.60331-4.2642-1.8804zm0.55082-31.277c0.57356-11.08 2.4034-20.146 4.0664-20.146 3.9495 0 2.2557 32.927-1.908 37.09-1.7607 1.7607-2.732-5.8644-2.1584-16.945zm-85.836-45.731c0-4.6907 1.7393-8.5285 3.865-8.5285 2.1258 0 2.8614 3.8378 1.6348 8.5285s-2.9659 8.5285-3.865 8.5285c-0.89913 0-1.6348-3.8378-1.6348-8.5285zm89.615-13.859c-0.0358-8.795 0.67046-15.991 1.5697-15.991 3.6954 0 5.3424 21.185 2.0505 26.376-2.266 3.5734-3.5786-0.19189-3.6202-10.385zm-86.496-7.8043c1.5079-5.7661 3.4408-7.6991 4.5054-4.5054 1.0255 3.0764-0.16294 7.6209-2.6409 10.099-3.1644 3.1644-3.7193 1.4995-1.8645-5.5935zm88.563-20.979c-1.4495-2.3453-0.60329-4.2642 1.8805-4.2642s4.5159 1.9189 4.5159 4.2642-0.8462 4.2642-1.8805 4.2642c-1.0342 0-3.0664-1.9189-4.5159-4.2642zm2.1321-61.328c0-3.518 1.9189-7.5823 4.2642-9.0318s4.2643 0.24307 4.2643 3.761c0 3.518-1.9189 7.5823-4.2643 9.0318-2.3453 1.4495-4.2642-0.24306-4.2642-3.7609zm203.13-21.849c-1.3448-3.5045-0.69969-6.3719 1.4336-6.3719 5.7804 0 9.3699 7.578 4.8985 10.341-2.1378 1.3212-4.9873-0.46505-6.3321-3.9696zm-198.2-6.3719c0-5.8633 0.96787-8.262 2.1508-5.3303 1.183 2.9317 1.183 7.729 0 10.661-1.183 2.9317-2.1508 0.53303-2.1508-5.3303zm-0.67331-21.321c0-4.6907 1.7393-8.5285 3.865-8.5285 2.1258 0 2.8614 3.8378 1.6348 8.5285s-2.9659 8.5285-3.865 8.5285c-0.89913 0-1.6348-3.8378-1.6348-8.5285zm186.83-1.0661c-18.18-32.58-34.62-75.69-28.83-75.69 2.2413 0 4.315 1.9189 4.6081 4.2643 1.0506 8.4046 2.0762 11.025 15.022 38.378 14.701 31.061 19.167 42.643 16.443 42.643-1.0165 0-4.2614-4.3176-7.2108-9.5946zm44.114-15.991c0-5.8633 0.96787-8.262 2.1508-5.3303 1.183 2.9317 1.183 7.729 0 10.661-1.183 2.9317-2.1508 0.53303-2.1508-5.3303zm-229.85-14.87c-0.15974-10.566 1.6036-20.381 3.9186-21.812 2.6533-1.6399 3.3919 4.8292 1.9982 17.503-2.9005 26.376-5.554 28.309-5.9168 4.3091zm229.27-3.2464c0.0358-2.9317 1.9254-8.2087 4.199-11.727 3.2212-4.9844 4.1481-3.8077 4.199 5.3303 0.0359 6.4497-1.8536 11.727-4.199 11.727-2.3453 0-4.2349-2.3986-4.199-5.3303zm95.268-19.722c1.5096-7.9155 2.7446-17.03 2.7446-20.255 0-3.2248 1.715-5.8634 3.811-5.8634 2.2016 0 2.1029 7.6022-0.23368 18.001-4.8676 21.664-10.215 28.53-6.322 8.1172zm-323.33-10.31c-1.8254-4.2055-2.1223-8.8429-0.65993-10.305 4.3303-4.3303 7.821 1.7524 5.8279 10.155-1.7669 7.4494-1.9968 7.4561-5.168 0.14968zm232.27 1.7533c0-2.3453 1.9189-5.4502 4.2642-6.8997s4.2642-0.71652 4.2642 1.6288-1.9189 5.4502-4.2642 6.8997-4.2642 0.71653-4.2642-1.6288zm-230.81-21.83c-1.9033-15.227-1.12-29.85 1.5991-29.85 1.759 0 3.1982 7.6756 3.1982 17.057 0 15.083-3.3833 24.105-4.7973 12.793zm146.94-1.9445c0-3.4148 1.5991-5.2205 3.5536-4.0126 1.9544 1.2079 3.5535 4.0019 3.5535 6.2088s-1.5991 4.0126-3.5535 4.0126c-1.9545 0-3.5536-2.794-3.5536-6.2088zm88.128 1.9445c0-2.3453 1.9189-4.2642 4.2642-4.2642s4.2642 1.9189 4.2642 4.2642-1.9189 4.2642-4.2642 4.2642-4.2642-1.9189-4.2642-4.2642zm97.034-23.453c1.1209-5.8634 2.7736-10.661 3.6729-10.661 0.89924 0 1.635 4.7973 1.635 10.661 0 5.8633-1.6528 10.661-3.6729 10.661s-2.7559-4.7973-1.635-10.661zm-194.62-4.9815c-0.27206-2.7399-1.7365-8.4966-3.2544-12.793-2.1413-6.0606-1.5738-6.7182 2.532-2.9338 2.9105 2.6826 4.3749 8.4393 3.2544 12.793-1.1206 4.3535-2.26 5.6737-2.532 2.9338zm201.81-24.868c1.6414-7.036 4.9034-14.712 7.2487-17.057 2.8428-2.8428 3.2694 0 1.2798 8.5285-1.6414 7.036-4.9033 14.712-7.2487 17.057-2.8428 2.8428-3.2694 0-1.2798-8.5285zm-216.67-12.38c-3.8841-9.1551-6.2188-17.489-5.1882-18.519 3.0631-3.0631 15.969 24.643 14.032 30.124-0.97985 2.7727-4.9594-2.4493-8.8435-11.604zm149.11-10.006c4.8105-20.83 23.881-75.569 27.782-79.742 2.0828-2.2281 3.7868-8.2296 3.7868-13.337 0-5.1071 2.695-11.522 5.9888-14.256 5.0393-4.1823 5.411-2.744 2.3442 9.0724-5.0936 19.626-19.316 58.429-22.631 61.744-1.5174 1.5175-2.759 7.1232-2.759 12.457 0 5.334-1.9189 10.884-4.2642 12.334-2.3453 1.4495-4.2642 7.3195-4.2642 13.044 0 5.7249-1.9555 10.409-4.3455 10.409-2.5542 0-3.2292-4.8339-1.6374-11.727zm-17.196 1.9482c1.6014-4.2055 3.9858-6.5722 5.2987-5.2592 1.3129 1.3129 3e-3 4.7538-2.9115 7.6464-4.2115 4.1801-4.7013 3.6903-2.3871-2.3871zm91.407-7.0269c0-2.2069 1.9189-5.1985 4.2642-6.648s4.2642 0.35615 4.2642 4.0126-1.9189 6.648-4.2642 6.648-4.2642-1.8057-4.2642-4.0126zm-239.06-28.57c-4.6663-10.886-7.5216-20.755-6.3452-21.932 1.1764-1.1764 3.4268 1.4938 5.001 5.9339 1.5741 4.44 5.3592 14.309 8.4113 21.932 8.5998 21.478 2.4803 16.339-7.067-5.9339zm249.58 10.835c-1.5637-4.9268-0.85442-10.946 1.5762-13.377 3.0495-3.0495 4.3014-0.27304 4.0389 8.9578-0.44591 15.684-1.7213 16.687-5.6151 4.4192zm-91.545-12.112c0-2.2069 1.897-5.185 4.2154-6.6178 2.4172-1.4939 3.1321 0.21773 1.6759 4.0126-2.8348 7.3875-5.8913 8.7391-5.8913 2.6053zm98.078-17.309c0-2.3453 1.9189-4.2642 4.2642-4.2642s4.2643 1.9189 4.2643 4.2642-1.9189 4.2642-4.2643 4.2642c-2.3453 0-4.2642-1.9189-4.2642-4.2642zm-279.65-33.04c-9.3497-20.357-27.367-70.554-27.367-76.246 0-0.86713 1.9189-1.5766 4.2642-1.5766s4.2642 3.4305 4.2642 7.6233 6.8902 23.862 15.312 43.709c17.523 41.296 20.816 51.01 17.293 51.01-1.3775 0-7.5722-11.034-13.766-24.519zm286.14 17.057c1.7235-4.1043 6.872-17.057 11.441-28.784 4.5691-11.727 10.218-23.24 12.552-25.586 2.3348-2.3453 4e-3 6.2898-5.1768 19.189-5.182 12.899-10.34 27.771-11.463 33.048-1.1225 5.277-3.9414 9.5946-6.2642 9.5946-2.3732 0-2.8506-3.2691-1.0896-7.4624zm-50.714-62.898c2.7332-13.01 8.4974-22.253 11.79-18.905 0.99954 1.0163-1.849 8.564-6.3301 16.773-8.1207 14.876-8.1386 14.883-5.46 2.1321zm87.208-25.23c-0.18507-4.4952 0.82266-7.0138 2.2397-5.5968s1.5684 5.0949 0.33645 8.1732c-1.3612 3.4017-2.3717 2.3913-2.5763-2.5763zm-77.093-3.6572c0-3.7705 1.9189-8.0414 4.2643-9.4909 2.3453-1.4495 4.2642-6.2468 4.2642-10.661 0-4.4138 2.0466-9.29 4.548-10.836 8.7811-5.427 8.5748 1.4616-0.53299 17.797-11.457 20.549-12.543 21.691-12.543 13.191zm83.743-13.755c1.35-3.518 3.2087-6.3964 4.1304-6.3964 0.92171 0 1.6759 2.8784 1.6759 6.3964s-1.8587 6.3964-4.1304 6.3964-3.0259-2.8784-1.6759-6.3964zm-368.84-11.27c-3.0054-4.8124-4.5274-9.6868-3.3823-10.832 1.1452-1.1452 4.312 2.0844 7.0373 7.1768 6.4444 12.042 3.4515 15.034-3.6551 3.6551zm374.64-3.4034c0-2.4838 1.9189-4.5159 4.2642-4.5159s4.2642 0.84621 4.2642 1.8805-1.9189 3.0664-4.2642 4.5159-4.2642 0.60329-4.2642-1.8805zm8.614-15.28c2.9667-3.5747 6.2722-5.6213 7.3455-4.548 2.9572 2.9572-3.0513 11.047-8.2048 11.047-2.8276 0-2.5041-2.4468 0.85933-6.4994zm-404.99-10.2c-2.6195-4.8946-2.98-8.8937-0.80172-8.8937 4.3826 0 10.433 12.916 7.4485 15.9-1.0378 1.0379-4.0289-2.1152-6.6468-7.0067zm335.13-3.691c-1.44-2.33 0.23922-6.6076 3.7312-9.5059 6.9332-5.7541 8.3811-1.2415 2.5529 7.9567-2.2268 3.5144-4.6938 4.1226-6.2841 1.5492zm-454.72-16.77c0-2.3028 3.8378-8.6119 8.5285-14.02 4.6907-5.4084 8.5285-8.4033 8.5285-6.6554s-3.8378 8.0571-8.5285 14.02c-4.6907 5.9632-8.5285 8.9582-8.5285 6.6554zm49.474-17.218c4.2899-7.6224 9.3051-13.859 11.145-13.859 5.1965 0 4.1662 2.0246-7.7999 15.328l-11.145 12.39 7.7999-13.859zm419.59 3.1982c0-2.3453 0.84619-4.2643 1.8804-4.2643s3.0664 1.9189 4.5159 4.2643c1.4495 2.3453 0.60331 4.2642-1.8804 4.2642-2.4838 0-4.5159-1.9189-4.5159-4.2642z" fill="#057a05"/>
</g>
</svg>